G75*
G70*
%OFA0B0*%
%FSLAX24Y24*%
%IPPOS*%
%LPD*%
%AMOC8*
5,1,8,0,0,1.08239X$1,22.5*
%
%ADD10C,0.0000*%
%ADD11C,0.0060*%
%ADD12C,0.0520*%
%ADD13R,0.0591X0.0512*%
%ADD14R,0.0630X0.0512*%
%ADD15C,0.1000*%
%ADD16OC8,0.1000*%
%ADD17C,0.0860*%
%ADD18C,0.0600*%
%ADD19R,0.0472X0.0472*%
%ADD20C,0.0100*%
%ADD21C,0.0240*%
%ADD22C,0.0440*%
D10*
X000101Y000252D02*
X000101Y012272D01*
X016101Y012272D01*
X016101Y000252D01*
X000101Y000252D01*
X000433Y000652D02*
X000435Y000673D01*
X000441Y000693D01*
X000450Y000713D01*
X000462Y000730D01*
X000477Y000744D01*
X000495Y000756D01*
X000515Y000764D01*
X000535Y000769D01*
X000556Y000770D01*
X000577Y000767D01*
X000597Y000761D01*
X000616Y000750D01*
X000633Y000737D01*
X000646Y000721D01*
X000657Y000703D01*
X000665Y000683D01*
X000669Y000663D01*
X000669Y000641D01*
X000665Y000621D01*
X000657Y000601D01*
X000646Y000583D01*
X000633Y000567D01*
X000616Y000554D01*
X000597Y000543D01*
X000577Y000537D01*
X000556Y000534D01*
X000535Y000535D01*
X000515Y000540D01*
X000495Y000548D01*
X000477Y000560D01*
X000462Y000574D01*
X000450Y000591D01*
X000441Y000611D01*
X000435Y000631D01*
X000433Y000652D01*
X000483Y011802D02*
X000485Y011823D01*
X000491Y011843D01*
X000500Y011863D01*
X000512Y011880D01*
X000527Y011894D01*
X000545Y011906D01*
X000565Y011914D01*
X000585Y011919D01*
X000606Y011920D01*
X000627Y011917D01*
X000647Y011911D01*
X000666Y011900D01*
X000683Y011887D01*
X000696Y011871D01*
X000707Y011853D01*
X000715Y011833D01*
X000719Y011813D01*
X000719Y011791D01*
X000715Y011771D01*
X000707Y011751D01*
X000696Y011733D01*
X000683Y011717D01*
X000666Y011704D01*
X000647Y011693D01*
X000627Y011687D01*
X000606Y011684D01*
X000585Y011685D01*
X000565Y011690D01*
X000545Y011698D01*
X000527Y011710D01*
X000512Y011724D01*
X000500Y011741D01*
X000491Y011761D01*
X000485Y011781D01*
X000483Y011802D01*
X015533Y011802D02*
X015535Y011823D01*
X015541Y011843D01*
X015550Y011863D01*
X015562Y011880D01*
X015577Y011894D01*
X015595Y011906D01*
X015615Y011914D01*
X015635Y011919D01*
X015656Y011920D01*
X015677Y011917D01*
X015697Y011911D01*
X015716Y011900D01*
X015733Y011887D01*
X015746Y011871D01*
X015757Y011853D01*
X015765Y011833D01*
X015769Y011813D01*
X015769Y011791D01*
X015765Y011771D01*
X015757Y011751D01*
X015746Y011733D01*
X015733Y011717D01*
X015716Y011704D01*
X015697Y011693D01*
X015677Y011687D01*
X015656Y011684D01*
X015635Y011685D01*
X015615Y011690D01*
X015595Y011698D01*
X015577Y011710D01*
X015562Y011724D01*
X015550Y011741D01*
X015541Y011761D01*
X015535Y011781D01*
X015533Y011802D01*
X015533Y000702D02*
X015535Y000723D01*
X015541Y000743D01*
X015550Y000763D01*
X015562Y000780D01*
X015577Y000794D01*
X015595Y000806D01*
X015615Y000814D01*
X015635Y000819D01*
X015656Y000820D01*
X015677Y000817D01*
X015697Y000811D01*
X015716Y000800D01*
X015733Y000787D01*
X015746Y000771D01*
X015757Y000753D01*
X015765Y000733D01*
X015769Y000713D01*
X015769Y000691D01*
X015765Y000671D01*
X015757Y000651D01*
X015746Y000633D01*
X015733Y000617D01*
X015716Y000604D01*
X015697Y000593D01*
X015677Y000587D01*
X015656Y000584D01*
X015635Y000585D01*
X015615Y000590D01*
X015595Y000598D01*
X015577Y000610D01*
X015562Y000624D01*
X015550Y000641D01*
X015541Y000661D01*
X015535Y000681D01*
X015533Y000702D01*
D11*
X009272Y000482D02*
X009046Y000482D01*
X009159Y000482D02*
X009159Y000822D01*
X009046Y000709D01*
X008904Y000822D02*
X008904Y000595D01*
X008791Y000482D01*
X008677Y000595D01*
X008677Y000822D01*
X008167Y000822D02*
X008167Y000482D01*
X007941Y000482D02*
X007941Y000822D01*
X008054Y000709D01*
X008167Y000822D01*
X007799Y000822D02*
X007799Y000482D01*
X007686Y000595D01*
X007572Y000482D01*
X007572Y000822D01*
X007431Y000766D02*
X007431Y000652D01*
X007374Y000595D01*
X007204Y000595D01*
X007204Y000482D02*
X007204Y000822D01*
X007374Y000822D01*
X007431Y000766D01*
X006694Y000822D02*
X006467Y000822D01*
X006467Y000652D01*
X006581Y000709D01*
X006638Y000709D01*
X006694Y000652D01*
X006694Y000539D01*
X006638Y000482D01*
X006524Y000482D01*
X006467Y000539D01*
X006326Y000539D02*
X006269Y000482D01*
X006156Y000482D01*
X006099Y000539D01*
X006099Y000652D02*
X006213Y000709D01*
X006269Y000709D01*
X006326Y000652D01*
X006326Y000539D01*
X006099Y000652D02*
X006099Y000822D01*
X006326Y000822D01*
X005958Y000822D02*
X005731Y000822D01*
X005731Y000652D01*
X005844Y000709D01*
X005901Y000709D01*
X005958Y000652D01*
X005958Y000539D01*
X005901Y000482D01*
X005787Y000482D01*
X005731Y000539D01*
D12*
X007601Y003492D02*
X007601Y004012D01*
X009601Y004012D02*
X009601Y003492D01*
X011601Y003992D02*
X011601Y004512D01*
X012601Y004512D02*
X012601Y003992D01*
X013601Y003992D02*
X013601Y004512D01*
X014601Y004512D02*
X014601Y003992D01*
X014601Y006992D02*
X014601Y007512D01*
X013601Y007512D02*
X013601Y006992D01*
X012601Y006992D02*
X012601Y007512D01*
X011601Y007512D02*
X011601Y006992D01*
X009601Y007012D02*
X009601Y006492D01*
X007601Y006492D02*
X007601Y007012D01*
X007601Y008492D02*
X007601Y009012D01*
X008601Y009012D02*
X008601Y008492D01*
X009601Y008492D02*
X009601Y009012D01*
D13*
X010601Y010667D03*
X010601Y011337D03*
X008601Y011337D03*
X008601Y010667D03*
D14*
X006351Y010678D03*
X006351Y011426D03*
X012601Y009126D03*
X012601Y008378D03*
X007601Y002626D03*
X007601Y001878D03*
D15*
X002101Y007852D03*
D16*
X004101Y007852D03*
D17*
X003220Y003232D02*
X003220Y002372D01*
X003971Y000912D02*
X004831Y000912D01*
X005582Y002372D02*
X005582Y003232D01*
D18*
X012601Y010452D02*
X012601Y011052D01*
X013601Y011052D02*
X013601Y010452D01*
D19*
X006351Y009915D03*
X006351Y009089D03*
D20*
X007601Y008752D02*
X007601Y006752D01*
X008601Y005752D02*
X011601Y005752D01*
X012601Y005252D01*
X013601Y007252D01*
X012601Y005252D02*
X012601Y004252D01*
X013601Y004252D02*
X013601Y002252D01*
X009601Y002252D01*
X009601Y003752D01*
X007601Y003752D01*
X007601Y002626D01*
X008601Y005752D02*
X008601Y008752D01*
X008601Y010667D01*
X008601Y011252D02*
X008601Y011752D01*
X010601Y011752D02*
X010601Y011252D01*
X010601Y010667D02*
X010601Y009752D01*
X009601Y008752D02*
X009601Y006752D01*
X006601Y011252D02*
X006601Y011752D01*
D21*
X008601Y011752D01*
X010601Y011752D01*
X013101Y011752D01*
X013145Y011750D01*
X013188Y011744D01*
X013230Y011735D01*
X013272Y011722D01*
X013312Y011705D01*
X013351Y011685D01*
X013388Y011662D01*
X013422Y011635D01*
X013455Y011606D01*
X013484Y011573D01*
X013511Y011539D01*
X013534Y011502D01*
X013554Y011463D01*
X013571Y011423D01*
X013584Y011381D01*
X013593Y011339D01*
X013599Y011296D01*
X013601Y011252D01*
X013601Y010752D01*
X014601Y009752D01*
X014601Y007252D01*
X012601Y007252D02*
X012601Y008378D01*
X012601Y009126D02*
X012601Y010752D01*
X006601Y011752D02*
X003101Y011752D01*
X002101Y010752D01*
X002101Y007852D01*
X002101Y004252D01*
X003151Y003352D01*
X003601Y003252D01*
X004101Y004252D02*
X004101Y008252D01*
X004701Y008852D01*
X006301Y008852D01*
X006314Y008854D01*
X006326Y008859D01*
X006336Y008867D01*
X006344Y008877D01*
X006349Y008889D01*
X006351Y008902D01*
X006351Y009002D01*
X006351Y010002D02*
X006351Y010652D01*
X004101Y004252D02*
X005601Y002752D01*
X007601Y001752D01*
X007601Y001252D01*
X014601Y001252D01*
X014601Y004252D01*
D22*
X010601Y009752D03*
M02*
