G75*
G70*
%OFA0B0*%
%FSLAX24Y24*%
%IPPOS*%
%LPD*%
%AMOC8*
5,1,8,0,0,1.08239X$1,22.5*
%
%ADD10C,0.0316*%
%ADD11C,0.0600*%
%ADD12C,0.1080*%
%ADD13OC8,0.1080*%
%ADD14C,0.0940*%
%ADD15C,0.0680*%
%ADD16C,0.0520*%
D10*
X000551Y000652D03*
X000601Y011802D03*
X015651Y011802D03*
X015651Y000702D03*
D11*
X014601Y003992D02*
X014601Y004512D01*
X013601Y004512D02*
X013601Y003992D01*
X012601Y003992D02*
X012601Y004512D01*
X011601Y004512D02*
X011601Y003992D01*
X009601Y004012D02*
X009601Y003492D01*
X007601Y003492D02*
X007601Y004012D01*
X007601Y006492D02*
X007601Y007012D01*
X007601Y008492D02*
X007601Y009012D01*
X008601Y009012D02*
X008601Y008492D01*
X009601Y008492D02*
X009601Y009012D01*
X011601Y007512D02*
X011601Y006992D01*
X012601Y006992D02*
X012601Y007512D01*
X013601Y007512D02*
X013601Y006992D01*
X014601Y006992D02*
X014601Y007512D01*
X009601Y007012D02*
X009601Y006492D01*
D12*
X002101Y007852D03*
D13*
X004101Y007852D03*
D14*
X003220Y003232D02*
X003220Y002372D01*
X003971Y000912D02*
X004831Y000912D01*
X005582Y002372D02*
X005582Y003232D01*
D15*
X012601Y010452D02*
X012601Y011052D01*
X013601Y011052D02*
X013601Y010452D01*
D16*
X010601Y009752D03*
M02*
