G75*
G70*
%OFA0B0*%
%FSLAX24Y24*%
%IPPOS*%
%LPD*%
%AMOC8*
5,1,8,0,0,1.08239X$1,22.5*
%
%ADD10C,0.0060*%
%ADD11R,0.0800X0.0200*%
%ADD12R,0.0200X0.0250*%
%ADD13R,0.0250X0.1000*%
%ADD14C,0.0039*%
%ADD15R,0.0059X0.0118*%
%ADD16R,0.0118X0.0118*%
D10*
X007201Y004452D02*
X007201Y006052D01*
X007203Y006069D01*
X007207Y006086D01*
X007214Y006102D01*
X007224Y006116D01*
X007237Y006129D01*
X007251Y006139D01*
X007267Y006146D01*
X007284Y006150D01*
X007301Y006152D01*
X007901Y006152D01*
X007918Y006150D01*
X007935Y006146D01*
X007951Y006139D01*
X007965Y006129D01*
X007978Y006116D01*
X007988Y006102D01*
X007995Y006086D01*
X007999Y006069D01*
X008001Y006052D01*
X008001Y004452D01*
X007999Y004435D01*
X007995Y004418D01*
X007988Y004402D01*
X007978Y004388D01*
X007965Y004375D01*
X007951Y004365D01*
X007935Y004358D01*
X007918Y004354D01*
X007901Y004352D01*
X007301Y004352D01*
X007284Y004354D01*
X007267Y004358D01*
X007251Y004365D01*
X007237Y004375D01*
X007224Y004388D01*
X007214Y004402D01*
X007207Y004418D01*
X007203Y004435D01*
X007201Y004452D01*
X007601Y005002D02*
X007601Y005252D01*
X007851Y005252D01*
X007601Y005252D02*
X007351Y005252D01*
X007601Y005252D02*
X007351Y005652D01*
X007851Y005652D01*
X007601Y005252D01*
X007601Y005852D01*
X009201Y006052D02*
X009201Y004452D01*
X009203Y004435D01*
X009207Y004418D01*
X009214Y004402D01*
X009224Y004388D01*
X009237Y004375D01*
X009251Y004365D01*
X009267Y004358D01*
X009284Y004354D01*
X009301Y004352D01*
X009901Y004352D01*
X009918Y004354D01*
X009935Y004358D01*
X009951Y004365D01*
X009965Y004375D01*
X009978Y004388D01*
X009988Y004402D01*
X009995Y004418D01*
X009999Y004435D01*
X010001Y004452D01*
X010001Y006052D01*
X009999Y006069D01*
X009995Y006086D01*
X009988Y006102D01*
X009978Y006116D01*
X009965Y006129D01*
X009951Y006139D01*
X009935Y006146D01*
X009918Y006150D01*
X009901Y006152D01*
X009301Y006152D01*
X009284Y006150D01*
X009267Y006146D01*
X009251Y006139D01*
X009237Y006129D01*
X009224Y006116D01*
X009214Y006102D01*
X009207Y006086D01*
X009203Y006069D01*
X009201Y006052D01*
X009601Y005502D02*
X009601Y005252D01*
X009351Y005252D01*
X009601Y005252D02*
X009851Y005252D01*
X009601Y005252D02*
X009851Y004852D01*
X009351Y004852D01*
X009601Y005252D01*
X009601Y004652D01*
X011101Y004602D02*
X011101Y006902D01*
X015101Y006902D01*
X015101Y006152D01*
X015062Y006150D01*
X015023Y006144D01*
X014985Y006135D01*
X014948Y006122D01*
X014912Y006105D01*
X014879Y006085D01*
X014847Y006061D01*
X014818Y006035D01*
X014792Y006006D01*
X014768Y005974D01*
X014748Y005941D01*
X014731Y005905D01*
X014718Y005868D01*
X014709Y005830D01*
X014703Y005791D01*
X014701Y005752D01*
X014703Y005713D01*
X014709Y005674D01*
X014718Y005636D01*
X014731Y005599D01*
X014748Y005563D01*
X014768Y005530D01*
X014792Y005498D01*
X014818Y005469D01*
X014847Y005443D01*
X014879Y005419D01*
X014912Y005399D01*
X014948Y005382D01*
X014985Y005369D01*
X015023Y005360D01*
X015062Y005354D01*
X015101Y005352D01*
X015101Y004602D01*
X011101Y004602D01*
X009851Y007952D02*
X007351Y007952D01*
X007351Y008202D01*
X007351Y009302D02*
X007351Y009622D01*
X009851Y009622D01*
X009851Y009302D01*
X009701Y009302D02*
X009101Y009302D01*
X009101Y009452D01*
X009151Y009502D01*
X009151Y009102D01*
X009101Y009152D01*
X009101Y009302D01*
X008951Y009302D01*
X009001Y009252D01*
X009051Y009202D01*
X009101Y009152D01*
X009051Y009202D02*
X009051Y009402D01*
X009001Y009352D01*
X009001Y009252D01*
X008951Y009302D02*
X009001Y009352D01*
X009051Y009402D02*
X009101Y009452D01*
X009851Y008202D02*
X009851Y007952D01*
X012351Y010252D02*
X012851Y010252D01*
X013101Y010502D01*
X013351Y010252D01*
X013851Y010252D01*
X014101Y010502D01*
X014101Y011002D01*
X013851Y011252D01*
X013351Y011252D01*
X013101Y011002D01*
X013101Y010502D01*
X013101Y011002D02*
X012851Y011252D01*
X012351Y011252D01*
X012101Y011002D01*
X012101Y010502D01*
X012351Y010252D01*
X003551Y007852D02*
X003351Y007852D01*
X000351Y007852D02*
X000354Y007987D01*
X000364Y008122D01*
X000381Y008256D01*
X000404Y008388D01*
X000433Y008520D01*
X000469Y008650D01*
X000512Y008778D01*
X000560Y008904D01*
X000615Y009028D01*
X000676Y009148D01*
X000742Y009266D01*
X000814Y009380D01*
X000892Y009490D01*
X000975Y009597D01*
X001063Y009699D01*
X001156Y009797D01*
X001254Y009890D01*
X001356Y009978D01*
X001463Y010061D01*
X001573Y010139D01*
X001687Y010211D01*
X001805Y010277D01*
X001925Y010338D01*
X002049Y010393D01*
X002175Y010441D01*
X002303Y010484D01*
X002433Y010520D01*
X002565Y010549D01*
X002697Y010572D01*
X002831Y010589D01*
X002966Y010599D01*
X003101Y010602D01*
X003236Y010599D01*
X003371Y010589D01*
X003505Y010572D01*
X003637Y010549D01*
X003769Y010520D01*
X003899Y010484D01*
X004027Y010441D01*
X004153Y010393D01*
X004277Y010338D01*
X004397Y010277D01*
X004515Y010211D01*
X004629Y010139D01*
X004739Y010061D01*
X004846Y009978D01*
X004948Y009890D01*
X005046Y009797D01*
X005139Y009699D01*
X005227Y009597D01*
X005310Y009490D01*
X005388Y009380D01*
X005460Y009266D01*
X005526Y009148D01*
X005587Y009028D01*
X005642Y008904D01*
X005690Y008778D01*
X005733Y008650D01*
X005769Y008520D01*
X005798Y008388D01*
X005821Y008256D01*
X005838Y008122D01*
X005848Y007987D01*
X005851Y007852D01*
X005848Y007717D01*
X005838Y007582D01*
X005821Y007448D01*
X005798Y007316D01*
X005769Y007184D01*
X005733Y007054D01*
X005690Y006926D01*
X005642Y006800D01*
X005587Y006676D01*
X005526Y006556D01*
X005460Y006438D01*
X005388Y006324D01*
X005310Y006214D01*
X005227Y006107D01*
X005139Y006005D01*
X005046Y005907D01*
X004948Y005814D01*
X004846Y005726D01*
X004739Y005643D01*
X004629Y005565D01*
X004515Y005493D01*
X004397Y005427D01*
X004277Y005366D01*
X004153Y005311D01*
X004027Y005263D01*
X003899Y005220D01*
X003769Y005184D01*
X003637Y005155D01*
X003505Y005132D01*
X003371Y005115D01*
X003236Y005105D01*
X003101Y005102D01*
X002966Y005105D01*
X002831Y005115D01*
X002697Y005132D01*
X002565Y005155D01*
X002433Y005184D01*
X002303Y005220D01*
X002175Y005263D01*
X002049Y005311D01*
X001925Y005366D01*
X001805Y005427D01*
X001687Y005493D01*
X001573Y005565D01*
X001463Y005643D01*
X001356Y005726D01*
X001254Y005814D01*
X001156Y005907D01*
X001063Y006005D01*
X000975Y006107D01*
X000892Y006214D01*
X000814Y006324D01*
X000742Y006438D01*
X000676Y006556D01*
X000615Y006676D01*
X000560Y006800D01*
X000512Y006926D01*
X000469Y007054D01*
X000433Y007184D01*
X000404Y007316D01*
X000381Y007448D01*
X000364Y007582D01*
X000354Y007717D01*
X000351Y007852D01*
X000851Y007852D02*
X001351Y007852D01*
X001101Y007602D02*
X001101Y008102D01*
X002651Y007852D02*
X002751Y007852D01*
X002751Y008352D01*
X003001Y008352D01*
X003001Y007352D01*
X002751Y007352D01*
X002751Y007852D01*
D11*
X007601Y004602D03*
X009601Y005902D03*
D12*
X009601Y006277D03*
X007601Y006277D03*
X007601Y004227D03*
X009601Y004227D03*
D13*
X003326Y007852D03*
D14*
X003393Y001030D02*
X000169Y001030D01*
X000169Y001542D01*
X000562Y001542D01*
X000169Y001542D02*
X000169Y004062D01*
X000562Y004062D01*
X000169Y004062D02*
X000169Y004574D01*
X004893Y004574D01*
X004893Y004377D01*
X004893Y001727D01*
X005483Y001877D02*
X005483Y001227D01*
X005680Y001227D01*
X005680Y001877D01*
X003712Y001778D02*
X003712Y001542D01*
X003318Y001542D01*
X002924Y001542D02*
X002531Y001542D01*
X002137Y001542D02*
X001743Y001542D01*
X001350Y001542D02*
X000956Y001542D01*
X001546Y001030D02*
X001546Y004377D01*
X004893Y004377D01*
X005483Y004377D01*
X005483Y003727D01*
X005680Y003727D02*
X005680Y004377D01*
X005483Y004377D01*
X003712Y004062D02*
X003712Y003826D01*
X003712Y004062D02*
X003318Y004062D01*
X002924Y004062D02*
X002531Y004062D01*
X002137Y004062D02*
X001743Y004062D01*
X001546Y004377D02*
X001546Y004574D01*
X001350Y004062D02*
X000956Y004062D01*
X000956Y003196D02*
X000917Y003194D01*
X000879Y003188D01*
X000842Y003179D01*
X000805Y003166D01*
X000770Y003149D01*
X000737Y003130D01*
X000706Y003107D01*
X000677Y003081D01*
X000651Y003052D01*
X000628Y003021D01*
X000609Y002988D01*
X000592Y002953D01*
X000579Y002916D01*
X000570Y002879D01*
X000564Y002841D01*
X000562Y002802D01*
X000564Y002763D01*
X000570Y002725D01*
X000579Y002688D01*
X000592Y002651D01*
X000609Y002616D01*
X000628Y002583D01*
X000651Y002552D01*
X000677Y002523D01*
X000706Y002497D01*
X000737Y002474D01*
X000770Y002455D01*
X000805Y002438D01*
X000842Y002425D01*
X000879Y002416D01*
X000917Y002410D01*
X000956Y002408D01*
X003712Y002408D02*
X003712Y002172D01*
X003712Y002408D02*
X003712Y003196D01*
X003712Y003432D01*
D15*
X006115Y009561D03*
X006587Y009561D03*
D16*
X006351Y009561D03*
M02*
